<svg xmlns="http://www.w3.org/2000/svg" viewBox="0 0 719 639"><defs><style>.cls-1{fill:#e52525;}.cls-2{fill:none;}.cls-2,.cls-3{stroke:#000;stroke-miterlimit:10;stroke-width:10px;}.cls-3{fill:#fff;}</style></defs><g id="Layer_2" data-name="Layer 2"><g id="Layer_1-2" data-name="Layer 1"><path class="cls-1" d="M55,234.85V216.53c.18-1.17.4-2.33.53-3.51.83-7.15,1.24-14.39,2.51-21.46,8.07-45,28.77-83.14,62.87-113.41,45.07-40,97.94-55.93,157.62-48.7,31,3.76,59.37,14.93,85.09,32.67,7.65,5.27,14.81,11.26,22.33,17,.44-.39,1.13-1,1.8-1.62a197.63,197.63,0,0,1,35.59-26.22,192.88,192.88,0,0,1,74.19-24.72c4.83-.57,9.68-1.06,14.52-1.59h18.82a30.1,30.1,0,0,0,3.25.52,184.7,184.7,0,0,1,40.24,6.74q61.35,17.43,101.33,67.3a193.94,193.94,0,0,1,41.68,99.63c.65,5.4,1.09,10.82,1.63,16.23V231c-.17,1.17-.44,2.34-.5,3.52A194,194,0,0,1,708.68,286c-10.5,31.49-28.43,58.13-51.8,81.51Q530.43,494,404.34,620.86c-6,6-11.93,12.09-17.89,18.14h-1.66c-1-1.09-1.88-2.24-2.91-3.27Q261.73,515.12,141.58,394.5C128,380.82,114,367.44,101.42,352.83c-25.36-29.55-40-64.14-44.8-102.87C56,244.93,55.54,239.88,55,234.85Z"/><path class="cls-2" d="M5,214.85V196.53c.18-1.17.4-2.33.53-3.51.83-7.15,1.24-14.39,2.51-21.46,8.07-45,28.77-83.14,62.87-113.41,45.07-40,97.94-55.93,157.62-48.7,31,3.76,59.37,14.93,85.09,32.67,7.65,5.27,14.81,11.26,22.33,17,.44-.39,1.13-1,1.8-1.62a197.63,197.63,0,0,1,35.59-26.22A192.88,192.88,0,0,1,447.53,6.59C452.36,6,457.21,5.53,462.05,5h18.82a30.1,30.1,0,0,0,3.25.52,184.7,184.7,0,0,1,40.24,6.74q61.35,17.43,101.33,67.3a193.94,193.94,0,0,1,41.68,99.63c.65,5.4,1.09,10.82,1.63,16.23V211c-.17,1.17-.44,2.34-.5,3.52A194,194,0,0,1,658.68,266c-10.5,31.49-28.43,58.13-51.8,81.51Q480.43,474,354.34,600.86c-6,6-11.93,12.09-17.89,18.14h-1.66c-1-1.09-1.88-2.24-2.91-3.27Q211.73,495.12,91.58,374.5C78,360.82,64,347.44,51.42,332.83,26.06,303.28,11.4,268.69,6.62,230,6,224.93,5.54,219.88,5,214.85Z"/><circle class="cls-3" cx="242.81" cy="231.5" r="65.81"/><circle cx="242.81" cy="231.5" r="20.25"/><circle class="cls-3" cx="446.19" cy="231.5" r="65.81"/><circle cx="446.19" cy="231.5" r="20.25"/><path class="cls-3" d="M404,375a65,65,0,0,1-130,0Z"/></g></g></svg>